<svg id="Capa_1" data-name="Capa 1" xmlns="http://www.w3.org/2000/svg" viewBox="0 0 1000 1000"><defs><style>.cls-1{fill:#646464;}.cls-2{fill:#fff;}</style></defs><title>Mesa de trabajo 1</title><circle class="cls-1" cx="500" cy="500" r="471.1"/><path class="cls-2" d="M455.05,637.53a99.25,99.25,0,0,1-25.47-18.69q-30.93-31.27-30.93-83.4,0-41,12.17-75.05t33.7-58.73A149.38,149.38,0,0,1,496,363.44q5.52-2.51,11.24-4.54l19.67-105.09a264.78,264.78,0,0,0-82.69,20.67,257.12,257.12,0,0,0-86.87,61.16q-36.48,39.27-57,93.47t-20.5,119.54q0,43.1,14.95,79.57a186.28,186.28,0,0,0,41.69,62.9q26.74,26.42,63.59,41.35A198.53,198.53,0,0,0,435.31,743Z"/><path class="cls-2" d="M625.91,262.67a274.94,274.94,0,0,0-42-8.33L566,350q25.92.69,53.65,10.36,29.87,10.43,59.76,31.27l18.77-98Q662,272.74,625.91,262.67Z"/><path class="cls-2" d="M509.84,650.09l-18.18,97.13a357.38,357.38,0,0,0,59.19-6.76A287.62,287.62,0,0,0,619,717.53L637,613.28q-65.34,36.84-124.4,36.83Z"/></svg>